# xmcd
#
# Track frame offsets:
#	150
#	22803
#	43207
#	76475
#	99921
#	123982
#	145669
#	163202
#	185667
#	211678
#	225573
#
# Disc length: 3276 seconds
#
# Revision: 1
# Processed by: cddbd v1.5.2PL0 Copyright (c) Steve Scherf et al.
# Submitted via: audiograbber 1.83.01
#
DISCID=880cca0b
DTITLE=Gregor Hilden - Blue in Red
DYEAR=2008
DGENRE=Blues
TTITLE0=Breezin'Track  1
TTITLE1=Blue Clouds
TTITLE2=More Today Than Yesterday
TTITLE3=Daydream
TTITLE4=OD-Special Blues
TTITLE5=Zak
TTITLE6=Trading Time
TTITLE7=Way Back Home
TTITLE8=Listen Here
TTITLE9=Blue In Red
TTITLE10=Shades Of Gold
EXTD=
EXTT0=
EXTT1=
EXTT2=
EXTT3=
EXTT4=
EXTT5=
EXTT6=
EXTT7=
EXTT8=
EXTT9=
EXTT10=
PLAYORDER=
